<svg xmlns="http://www.w3.org/2000/svg" width="20" height="20" viewBox="0 0 20 20" fill="none">
  <path d="M5.00004 1.66669C4.55801 1.66669 4.13409 1.84228 3.82153 2.15484C3.50897 2.4674 3.33337 2.89133 3.33337 3.33335V16.6667C3.33337 17.1087 3.50897 17.5326 3.82153 17.8452C4.13409 18.1578 4.55801 18.3334 5.00004 18.3334H15C15.4421 18.3334 15.866 18.1578 16.1786 17.8452C16.4911 17.5326 16.6667 17.1087 16.6667 16.6667V8.19002C16.6666 7.74803 16.491 7.32417 16.1784 7.01169L11.3217 2.15502C11.0092 1.84244 10.5854 1.66678 10.1434 1.66669H5.00004ZM4.58337 3.33335C4.58337 3.22285 4.62727 3.11687 4.70541 3.03873C4.78355 2.96059 4.88953 2.91669 5.00004 2.91669H10V6.66669C10 7.10871 10.1756 7.53264 10.4882 7.8452C10.8008 8.15776 11.2247 8.33335 11.6667 8.33335H15.4167V16.6667C15.4167 16.7772 15.3728 16.8832 15.2947 16.9613C15.2165 17.0395 15.1105 17.0834 15 17.0834H5.00004C4.88953 17.0834 4.78355 17.0395 4.70541 16.9613C4.62727 16.8832 4.58337 16.7772 4.58337 16.6667V3.33335ZM14.4834 7.08335H11.6667C11.5562 7.08335 11.4502 7.03946 11.3721 6.96132C11.2939 6.88317 11.25 6.77719 11.25 6.66669V3.85002L14.4834 7.08335Z" fill="white"/>
</svg>