<svg width="140" height="32" viewBox="0 0 140 32" fill="none" xmlns="http://www.w3.org/2000/svg">
<g clip-path="url(#clip0_95_971)">
<path d="M7.01166 19.0877C11.5403 19.0877 13.8617 17.6547 13.8617 13.5157C13.8617 9.37663 11.5974 7.94591 7.06655 7.94591H4.27391V19.0877V22.7079V27.6332H-0.00769043V4.36682H7.43707C10.8495 4.36682 13.5095 5.20103 15.417 6.86716C17.3245 8.53328 18.2783 10.3251 18.2783 13.5157C18.2783 16.7062 17.3245 18.5049 15.417 20.187C13.5095 21.8669 10.8495 22.7079 7.43707 22.7079H7.01623L7.01166 19.0877Z" fill="#EE9C38"/>
<path d="M22.1538 26.1168C20.9027 24.862 20.2783 23.2622 20.2783 21.3172C20.2783 18.4306 21.6141 16.3531 24.2901 15.0824C26.9638 13.8116 29.9508 13.1466 33.2512 13.0826C33.2512 11.0759 32.9196 9.67946 32.2609 8.89553C31.5999 8.11161 30.4906 7.7185 28.9262 7.7185C26.9112 7.7185 24.8619 8.42472 22.7782 9.83487L22.2042 6.39977C24.393 4.79992 26.9272 4 29.809 4C32.5513 4 34.5846 4.71307 35.9044 6.14151C37.2241 7.56994 37.8828 9.86687 37.8828 13.0346V19.7631C37.8828 21.5503 38.02 22.8142 38.299 23.5501C38.5758 24.2884 39.1842 24.6563 40.1219 24.6563H40.696L40.1219 27.9977H39.1316C37.5328 27.9977 36.3526 27.7303 35.5887 27.1978C34.8248 26.6653 34.1981 25.8014 33.7132 24.6106C32.9127 25.6459 31.9247 26.4687 30.7445 27.0812C29.5643 27.6937 28.2949 28 26.9409 28C24.9991 27.9977 23.4026 27.3715 22.1538 26.1168ZM30.9572 23.7878C31.8606 23.2073 32.6245 22.4462 33.2489 21.5069V16.0011C30.5752 16.1268 28.5419 16.5908 27.1536 17.3884C25.763 18.1884 25.07 19.4202 25.07 21.0818C25.07 23.4656 26.1633 24.6586 28.3521 24.6586C29.1846 24.6586 30.0537 24.3683 30.9572 23.7878Z" fill="#EE9C38"/>
<path d="M42.696 20.9412V4.35535H47.3481V23.3707H55.2022L55.2526 27.6446H49.4271H49.3379C45.6693 27.6446 42.696 24.6734 42.696 21.0075V20.9412Z" fill="#EE9C38"/>
<path d="M72.6133 11.0565V27.6469H67.9612V8.62702H57.303L57.2526 4.35315H65.8799H65.9691C69.6377 4.35315 72.611 7.32429 72.611 10.9902V11.0565H72.6133Z" fill="white"/>
<path d="M80.0934 26.343C78.275 25.2642 76.9073 23.8038 75.9902 21.9571C75.073 20.1127 74.6133 18.0649 74.6133 15.8114C74.6133 13.6539 75.0364 11.677 75.8849 9.87829C76.7335 8.0796 77.9617 6.65803 79.5719 5.60898C81.182 4.56222 83.0941 4.03656 85.3104 4.03656C88.1488 4.03656 90.4611 4.89591 92.2428 6.61689C94.0268 8.33787 94.9188 10.7125 94.9188 13.7476C94.9188 14.2801 94.8479 15.0138 94.7107 15.9531H79.2334C79.3363 18.6728 80.0911 20.7366 81.4931 22.1445C82.8951 23.5524 84.7203 24.2563 86.9732 24.2563C88.0459 24.2563 89.1803 24.1397 90.3742 23.9043C91.5681 23.6689 92.6157 23.333 93.5168 22.8964L93.9331 26.5555C92.0279 27.4926 89.6034 27.9634 86.6621 27.9634C84.1005 27.9611 81.9117 27.4217 80.0934 26.343ZM90.2987 13.0917C90.2987 11.5284 89.8756 10.2531 89.0271 9.26807C88.1785 8.28302 86.9572 7.79163 85.3653 7.79163C83.8077 7.79163 82.5178 8.23045 81.4954 9.10579C80.473 9.98114 79.7892 11.3113 79.4438 13.094H90.2987V13.0917Z" fill="white"/>
<path d="M99.9401 24.6838C97.9251 22.4737 96.9188 19.626 96.9188 16.1429C96.9188 12.5364 97.9251 9.61093 99.9401 7.36657C101.955 5.1245 104.942 4.00232 108.901 4.00232C110.079 4.00232 111.186 4.12345 112.225 4.36571C112.259 4.37485 112.328 4.39085 112.328 4.39085L112.332 8.1962C112.332 8.1962 112.271 8.17563 112.239 8.16649C111.172 7.83738 110.079 7.67282 108.954 7.67282C106.628 7.67282 104.812 8.4019 103.51 9.86005C102.209 11.3182 101.557 13.35 101.557 15.9532C101.557 18.5563 102.225 20.611 103.563 22.1171C104.899 23.6233 106.749 24.3752 109.112 24.3752C110.251 24.3752 111.31 24.2244 112.284 23.925C112.309 23.9181 112.362 23.8998 112.362 23.8998L112.367 27.6C112.367 27.6 112.309 27.6115 112.282 27.6183C112.165 27.6435 112.049 27.6686 111.928 27.6915C110.887 27.8949 109.844 27.9977 108.801 27.9977C104.908 28 101.955 26.8938 99.9401 24.6838Z" fill="white"/>
<path d="M114.367 4.35772H118.935V13.5454L128.239 13.6666V4.35315H132.875V27.6378H128.239V17.5359L118.935 17.4148V27.6469H114.367V4.35772Z" fill="white"/>
<path d="M137.442 18.5643C136.026 18.5643 134.875 17.4124 134.875 16C134.875 14.5853 136.026 13.4357 137.442 13.4357C138.857 13.4357 140.008 14.5853 140.008 16C140.01 17.4147 138.857 18.5643 137.442 18.5643ZM137.442 13.8082C136.232 13.8082 135.248 14.791 135.248 16C135.248 17.209 136.232 18.1918 137.442 18.1918C138.651 18.1918 139.635 17.209 139.635 16C139.635 14.791 138.651 13.8082 137.442 13.8082Z" fill="white"/>
<path d="M135.683 1.04523H136.611C136.989 1.04523 137.284 1.15798 137.496 1.38653C137.707 1.61509 137.815 1.95029 137.815 2.3891C137.815 2.64203 137.764 2.86753 137.667 3.0717C137.57 3.27587 137.432 3.43433 137.257 3.55318L137.98 5.44558H137.422L136.776 3.72383C136.721 3.73297 136.664 3.73602 136.606 3.73602H136.151V5.44558H135.68V1.04523H135.683ZM136.561 3.20578C136.833 3.20578 137.031 3.13265 137.156 2.98942C137.282 2.84621 137.344 2.63289 137.344 2.35558C137.344 2.07218 137.282 1.85886 137.156 1.71563C137.031 1.57242 136.833 1.49929 136.561 1.49929H136.126V3.20578H136.561Z" fill="white"/>
</g>
<defs>
<clipPath id="clip0_95_971">
<rect width="140.015" height="32" fill="white" transform="translate(-0.00769043)"/>
</clipPath>
</defs>
</svg>
