<svg width="20" height="20" viewBox="0 0 20 20" fill="none" xmlns="http://www.w3.org/2000/svg">
<g clip-path="url(#clip0_95_1095)">
<path d="M6.66699 5.00016C6.66699 4.55814 6.84259 4.13421 7.15515 3.82165C7.46771 3.50909 7.89163 3.3335 8.33366 3.3335H15.0003C15.4424 3.3335 15.8663 3.50909 16.1788 3.82165C16.4914 4.13421 16.667 4.55814 16.667 5.00016V11.6668C16.667 12.1089 16.4914 12.5328 16.1788 12.8453C15.8663 13.1579 15.4424 13.3335 15.0003 13.3335H8.33366C7.89163 13.3335 7.46771 13.1579 7.15515 12.8453C6.84259 12.5328 6.66699 12.1089 6.66699 11.6668V5.00016Z" stroke="#FDFBFB" stroke-width="1.5" stroke-linecap="round" stroke-linejoin="round"/>
<path d="M3.33301 8.33317C3.33301 7.89114 3.5086 7.46722 3.82116 7.15466C4.13372 6.8421 4.55765 6.6665 4.99967 6.6665H11.6663C12.1084 6.6665 12.5323 6.8421 12.8449 7.15466C13.1574 7.46722 13.333 7.89114 13.333 8.33317V14.9998C13.333 15.4419 13.1574 15.8658 12.8449 16.1783C12.5323 16.4909 12.1084 16.6665 11.6663 16.6665H4.99967C4.55765 16.6665 4.13372 16.4909 3.82116 16.1783C3.5086 15.8658 3.33301 15.4419 3.33301 14.9998V8.33317Z" stroke="#FDFBFB" stroke-width="1.5" stroke-linecap="round" stroke-linejoin="round"/>
</g>
<defs>
<clipPath id="clip0_95_1095">
<rect width="20" height="20" fill="white"/>
</clipPath>
</defs>
</svg>
